<mxfile host="app.diagrams.net" modified="2023-08-19T13:27:45.553Z" agent="Mozilla/5.0 (Windows NT 10.0; Win64; x64) AppleWebKit/537.36 (KHTML, like Gecko) Chrome/115.0.0.0 Safari/537.36" version="21.6.8" etag="TSZxFrPaxGc2bdO-ST6b" type="github">
  <diagram name="Сторінка-1" id="1RmnBftuhUXBhxPQ8HAz">
    <mxGraphModel>
      <root>
        <mxCell id="0" />
        <mxCell id="1" parent="0" />
      </root>
    </mxGraphModel>
  </diagram>
</mxfile>
